# Blender 4.4.3
# www.blender.org
o Plane
v -10.000000 0.000000 10.000000
v 10.000000 0.000000 10.000000
v -10.000000 0.000000 -10.000000
v 10.000000 0.000000 -10.000000
v -5.000000 0.000000 -3.000000
v -5.000000 0.000000 -5.000000
v -5.000000 2.000000 -5.000000
v -3.000000 0.000000 -3.000000
v -3.000000 0.000000 -5.000000
v -3.000000 2.000000 -5.000000
v 2.513275 0.000000 0.913390
v 4.482890 0.000000 0.566094
v 4.482890 2.000000 0.566094
v 2.860571 0.000000 2.883005
v 4.830187 0.000000 2.535709
v 4.830187 2.000000 2.535709
v 1.800000 0.000000 -4.000000
v 1.800000 2.000000 -4.000000
v 1.800000 0.000000 -6.000000
v 1.800000 2.000000 -6.000000
v 3.800000 0.000000 -4.000000
v 3.800000 2.000000 -4.000000
v 3.800000 0.000000 -6.000000
v 3.800000 2.000000 -6.000000
v -4.700000 0.000000 6.400001
v -4.700000 2.000000 6.400001
v -4.700000 0.000000 4.400001
v -4.700000 2.000000 4.400001
v -2.700000 0.000000 6.400001
v -2.700000 2.000000 6.400001
v -2.700000 0.000000 4.400001
v -2.700000 2.000000 4.400001
vn -0.0000 1.0000 -0.0000
vn -1.0000 -0.0000 -0.0000
vn -0.0000 -0.0000 -1.0000
vn 1.0000 -0.0000 -0.0000
vn -0.0000 0.7071 0.7071
vn -0.1736 -0.0000 -0.9848
vn 0.9848 -0.0000 -0.1736
vn 0.1736 -0.0000 0.9848
vn -0.6964 0.7071 0.1228
vn -0.0000 -0.0000 1.0000
vt 1.000000 0.000000
vt 0.000000 1.000000
vt 0.000000 0.000000
vt 0.625000 0.000000
vt 0.625000 0.250000
vt 0.375000 0.250000
vt 0.375000 0.500000
vt 0.625000 0.500000
vt 0.375000 0.750000
vt 0.875000 0.500000
vt 0.625000 0.750000
vt 0.375000 0.000000
vt 0.375000 1.000000
vt 1.000000 1.000000
vt 0.875000 0.750000
vt 0.625000 1.000000
s 0
f 2/1/1 3/2/1 1/3/1
f 5/4/2 7/5/2 6/6/2
f 7/5/3 9/7/3 6/6/3
f 9/7/4 10/8/4 8/9/4
f 7/10/5 8/11/5 10/8/5
f 11/4/6 13/5/6 12/6/6
f 13/5/7 15/7/7 12/6/7
f 15/7/8 16/8/8 14/9/8
f 13/10/9 14/11/9 16/8/9
f 18/4/2 19/6/2 17/12/2
f 20/5/3 23/7/3 19/6/3
f 24/8/4 21/9/4 23/7/4
f 22/11/10 17/13/10 21/9/10
f 26/4/2 27/6/2 25/12/2
f 20/10/1 22/11/1 24/8/1
f 28/5/3 31/7/3 27/6/3
f 32/8/4 29/9/4 31/7/4
f 30/11/10 25/13/10 29/9/10
f 28/10/1 30/11/1 32/8/1
f 2/1/1 4/14/1 3/2/1
f 7/5/3 10/8/3 9/7/3
f 7/10/5 5/15/5 8/11/5
f 13/5/7 16/8/7 15/7/7
f 13/10/9 11/15/9 14/11/9
f 18/4/2 20/5/2 19/6/2
f 20/5/3 24/8/3 23/7/3
f 24/8/4 22/11/4 21/9/4
f 22/11/10 18/16/10 17/13/10
f 26/4/2 28/5/2 27/6/2
f 20/10/1 18/15/1 22/11/1
f 28/5/3 32/8/3 31/7/3
f 32/8/4 30/11/4 29/9/4
f 30/11/10 26/16/10 25/13/10
f 28/10/1 26/15/1 30/11/1
