# Blender 4.4.3
# www.blender.org
o Plane
v -10.000000 0.000000 10.000000
v 10.000000 0.000000 10.000000
v -10.000000 0.000000 -10.000000
v 10.000000 0.000000 -10.000000
v -4.561368 2.000000 -3.958477
v -4.561368 0.000000 -3.958477
v -4.381696 2.000000 -3.573169
v -3.716131 0.000000 -2.145862
v -6.373983 2.000000 -3.113241
v -6.373983 0.000000 -3.113241
v -6.007873 2.000000 -2.328113
v -5.528747 0.000000 -1.300625
v 1.800000 0.000000 -4.000000
v 1.800000 2.000000 -4.000000
v 1.800000 0.000000 -6.000000
v 1.800000 2.000000 -6.000000
v 3.800000 0.000000 -4.000000
v 3.800000 2.000000 -4.000000
v 3.800000 0.000000 -6.000000
v 3.800000 2.000000 -6.000000
v -4.700000 0.000000 6.400001
v -4.700000 2.000000 6.400001
v -4.700000 0.000000 4.400001
v -4.700000 2.000000 4.400001
v -2.700000 0.000000 6.400001
v -2.700000 2.000000 6.400001
v -2.700000 0.000000 4.400001
v -2.700000 2.000000 4.400001
v 7.383410 2.126754 3.019441
v 7.383410 -0.126754 3.019441
v 5.851331 1.484595 3.880844
v 5.414124 -0.126754 4.114983
v 6.287867 2.126754 1.050154
v 6.287867 -0.126754 1.050154
v 5.434878 2.126754 1.524684
v 4.318581 -0.126754 2.145697
vn -0.0000 1.0000 -0.0000
vn 0.3677 0.4931 0.7884
vn -0.4226 -0.0000 -0.9063
vn -0.9063 -0.0000 0.4226
vn 0.9063 -0.0000 -0.4226
vn -1.0000 -0.0000 -0.0000
vn -0.0000 -0.0000 -1.0000
vn 1.0000 -0.0000 -0.0000
vn -0.0000 -0.0000 1.0000
vn -0.2248 0.9293 0.2930
vn -0.8352 0.2941 0.4646
vn 0.8739 -0.0000 -0.4861
vn -0.4861 -0.0000 -0.8739
vn 0.4861 -0.0049 0.8739
vn 0.4819 0.6096 0.6294
vn -0.8277 0.4869 0.2790
vn 0.4901 -0.0000 0.8717
vt 1.000000 0.000000
vt 0.000000 1.000000
vt 0.000000 0.000000
vt 0.875000 0.500000
vt 0.625000 0.553142
vt 0.625000 0.500000
vt 0.375000 0.750000
vt 0.663079 0.916924
vt 0.375000 1.000000
vt 0.625000 0.250000
vt 0.375000 0.500000
vt 0.375000 0.250000
vt 0.625000 0.141713
vt 0.375000 0.000000
vt 0.625000 0.000000
vt 0.625000 0.750000
vt 0.875000 0.608287
vt 0.548847 0.613108
vt 1.000000 1.000000
vt 0.625000 1.000000
vt 0.875000 0.750000
s 0
f 2/1/1 3/2/1 1/3/1
f 9/4/1 7/5/1 5/6/1
f 8/7/2 11/8/2 12/9/2
f 9/10/3 6/11/3 10/12/3
f 11/13/4 10/12/4 12/14/4
f 6/11/5 7/5/5 8/7/5
f 14/15/6 15/12/6 13/14/6
f 16/10/7 19/11/7 15/12/7
f 20/6/8 17/7/8 19/11/8
f 18/16/9 13/9/9 17/7/9
f 22/15/6 23/12/6 21/14/6
f 16/4/1 18/16/1 20/6/1
f 24/10/7 27/11/7 23/12/7
f 28/6/8 25/7/8 27/11/8
f 26/16/9 21/9/9 25/7/9
f 24/4/1 26/16/1 28/6/1
f 29/6/10 35/17/10 31/18/10
f 31/18/11 36/9/11 32/7/11
f 33/10/12 30/11/12 34/12/12
f 35/13/13 34/12/13 36/14/13
f 30/11/14 31/18/14 32/7/14
f 2/1/1 4/19/1 3/2/1
f 9/4/1 11/17/1 7/5/1
f 8/7/15 7/5/15 11/8/15
f 9/10/3 5/6/3 6/11/3
f 11/13/4 9/10/4 10/12/4
f 6/11/5 5/6/5 7/5/5
f 14/15/6 16/10/6 15/12/6
f 16/10/7 20/6/7 19/11/7
f 20/6/8 18/16/8 17/7/8
f 18/16/9 14/20/9 13/9/9
f 22/15/6 24/10/6 23/12/6
f 16/4/1 14/21/1 18/16/1
f 24/10/7 28/6/7 27/11/7
f 28/6/8 26/16/8 25/7/8
f 26/16/9 22/20/9 21/9/9
f 24/4/1 22/21/1 26/16/1
f 29/6/1 33/4/1 35/17/1
f 31/18/16 35/8/16 36/9/16
f 33/10/12 29/6/12 30/11/12
f 35/13/13 33/10/13 34/12/13
f 30/11/17 29/6/17 31/18/17
